USFL
nRows=116
nColumns=2
inDegrees=yes
endheader
time	soleus_r	
3.25	 26.348751	
3.3125	 26.341985	
3.375	 26.353574	
3.4375	 26.347909	
3.5	 26.381680	
3.5625	 26.357357	
3.625	 26.354225	
3.6875	 26.348836	
3.75	 26.372259	
3.8125	 26.346176	
3.875	 26.378925	
3.9375	 26.359577	
4	 26.350759	
4.0625	 26.381456	
4.125	 26.392898	
4.1875	 26.353508	
4.25	 26.370931	
4.3125	 26.482672	
4.375	 26.447042	
4.4375	 26.479296	
4.5	 26.582402	
4.5625	 26.564111	
4.625	 26.580153	
4.6875	 26.645172	
4.75	 26.585128	
4.8125	 26.531379	
4.875	 26.591408	
4.9375	 26.578116	
5	 26.555459	
5.0625	 26.652383	
5.125	 26.844997	
5.1875	 27.002397	
5.25	 26.972608	
5.3125	 27.146457	
5.375	 27.253625	
5.4375	 23.997458	
5.5	 23.771654	
5.5625	 23.718756	
5.625	 19.890272	
5.6875	 19.966277	
5.75	 19.886009	
5.8125	 19.832593	
5.875	 19.722757	
5.9375	 19.750706	
6	 19.988795	
6.0625	 19.859679	
6.125	 20.024188	
6.1875	 20.008403	
6.25	 20.084580	
6.3125	 20.100926	
6.375	 20.033394	
6.4375	 20.059763	
6.5	 20.027276	
6.5625	 20.054275	
6.625	 19.993718	
6.6875	 19.916638	
6.75	 19.859429	
6.8125	 19.961147	
6.875	 19.978338	
6.9375	 20.012391	
7	 19.979471	
7.0625	 19.949069	
7.125	 20.047259	
7.1875	 20.122484	
7.25	 20.033088	
7.3125	 20.077044	
7.375	 20.293670	
7.4375	 20.353121	
7.5	 20.449025	
7.5625	 20.177149	
7.625	 20.215137	
7.6875	 20.157772	
7.75	 20.053733	
7.8125	 20.229132	
7.875	 20.114748	
7.9375	 20.146589	
8	 20.084113	
8.0625	 20.097029	
8.125	 19.967888	
8.1875	 19.988723	
8.25	 19.746621	
8.3125	 19.736933	
8.375	 19.707951	
8.4375	 19.503841	
8.5	 19.708805	
8.5625	 19.985095	
8.625	 20.163277	
8.6875	 20.373413	
8.75	 20.523038	
8.8125	 20.640215	
8.875	 20.566440	
8.9375	 20.435687	
9	 20.429785	
9.0625	 20.076968	
9.125	 20.012273	
9.1875	 19.823579	
9.25	 19.689624	
9.3125	 19.566734	
9.375	 19.282592	
9.4375	 19.261249	
9.5	 19.474952	
9.5625	 19.658215	
9.625	 19.662494	
9.6875	 19.800303	
9.75	 19.835322	
9.8125	 19.889868	
9.875	 19.974005	
9.9375	 19.844472	
10	 20.000150	
10.0625	 20.131363	
10.125	 20.191174	
10.1875	 19.985764	
10.25	 19.862736	
10.3125	 19.990637	
10.375	 20.032232	
10.4375	 20.052920	
